<svg width="32" height="24" viewBox="0 0 32 24" fill="none" xmlns="http://www.w3.org/2000/svg">
<path d="M0 20.3077C0 21.287 0.374602 22.2261 1.0414 22.9185C1.70819 23.611 2.61256 24 3.55556 24H28.4444C29.3874 24 30.2918 23.611 30.9586 22.9185C31.6254 22.2261 32 21.287 32 20.3077V16.6154H0V20.3077Z" fill="#FFCD05"/>
<path d="M0 8.30769H32V16.6154H0V8.30769Z" fill="#ED1F24"/>
<path d="M28.4444 0H3.55556C2.61256 0 1.70819 0.38901 1.0414 1.08145C0.374602 1.77389 0 2.71305 0 3.69231V8.30769H32V3.69231C32 2.71305 31.6254 1.77389 30.9586 1.08145C30.2918 0.38901 29.3874 0 28.4444 0Z" fill="#141414"/>
</svg>
