<svg width="195" height="127" viewBox="0 0 195 127" fill="none" xmlns="http://www.w3.org/2000/svg">
<path d="M131.688 81.6482C130.788 81.2183 130.148 80.6109 129.528 79.9919C125.653 76.1229 121.795 72.2374 117.917 68.3714C116.779 67.2372 115.813 66.1045 115.617 64.3643C115.453 62.9072 113.941 62.2711 112.92 61.3963C112.495 61.0321 112.005 61.6432 111.627 61.9336C108.645 64.2287 105.346 65.9434 101.771 67.1104C85.4 72.4545 67.56 65.0602 59.8664 49.781C56.2788 42.6562 55.1109 35.17 56.6866 27.3647C58.3507 19.1224 62.7477 12.4601 69.3551 7.25716C76.604 1.54909 84.9189 -0.680426 94.1141 0.17791C103.284 1.03391 110.854 4.9344 116.944 11.7633C121.302 16.651 124.183 22.2566 125.375 28.6489C127.052 37.6499 124.834 45.8586 119.879 53.4463C119.674 53.7604 119.381 54.0337 119.242 54.3715C118.957 55.0601 117.71 55.5397 118.323 56.3396C119.112 57.3678 119.764 58.7688 121.486 58.6937C122.656 58.6426 123.592 59.2421 124.378 60.0233C128.766 64.3829 133.168 68.7302 137.499 73.1452C139.345 75.0275 139.453 77.3884 138.018 79.5379C136.549 81.7384 134.268 82.5261 131.688 81.6482ZM82.5883 29.5982C86.0845 25.7739 89.6859 22.0495 93.4043 18.4361C93.9734 17.883 94.5088 17.2859 95.2616 16.9626C96.2391 16.5428 97.1867 16.6134 97.9513 17.3604C98.7184 18.1096 98.7904 19.0725 98.3798 20.0204C98.1873 20.465 97.8499 20.8699 97.5067 21.2254C95.4749 23.3304 93.4133 25.4073 91.3793 27.5103C89.9847 28.952 88.5993 30.4035 87.2471 31.884C86.4775 32.7267 86.4613 33.7919 87.1583 34.4646C88.0344 35.3102 88.7948 34.9202 89.5772 34.2466C92.0868 32.0862 94.3737 29.7075 96.6579 27.322C98.073 25.8443 99.4884 24.3552 101.026 23.008C102.293 21.8979 103.843 22.0061 104.765 23.0337C105.696 24.0727 105.596 25.1216 104.339 26.4322C102.024 28.8446 99.6593 31.2098 97.3464 33.6238C95.8451 35.1907 94.3797 36.7927 92.9369 38.4128C92.3468 39.0754 92.4539 39.7718 93.0689 40.418C93.6861 41.0666 94.3944 41.1093 95.1274 40.7227C95.5267 40.5121 95.8793 40.1917 96.2063 39.8738C97.7652 38.3581 99.3151 36.8331 100.855 35.2986C102.632 33.5281 104.376 31.7252 106.173 29.9751C106.917 29.2507 107.712 28.5001 108.925 28.822C111.063 29.3899 111.533 31.4445 109.818 33.2025C105.326 37.8086 100.811 42.3948 96.2353 46.9196C92.9168 50.2011 88.9316 51.3647 84.3397 50.11C83.33 49.8341 82.568 50.079 81.848 50.8146C80.1236 52.5763 78.3506 54.2915 76.6027 56.0308C75.6494 56.9795 75.675 57.1028 76.876 57.8471C80.0583 59.8191 83.5266 60.9739 87.2423 61.4495C91.3372 61.9736 95.3767 61.7168 99.3064 60.4667C104.948 58.6721 109.616 55.4711 113.106 50.6918C119.011 42.6057 120.186 33.7014 116.569 24.5633C111.436 11.5958 97.2152 4.00236 83.1729 8.08139C74.5836 10.5764 68.5347 16.0279 65.2335 24.2791C63.4871 28.6444 63.1945 33.2276 63.7149 37.8987C64.3204 43.3329 66.5379 48.0171 70.0359 52.1744C70.4543 52.6716 70.8297 52.7083 71.287 52.2491C73.4394 50.0878 75.5961 47.9305 77.7547 45.7752C78.1908 45.3398 78.2724 44.904 77.9878 44.3192C76.1429 40.5282 76.8431 36.9697 79.1047 33.6009C80.06 32.1781 81.2137 30.906 82.5883 29.5982Z" fill="black"/>
<path d="M23.9552 103.334C28.9957 109.556 27.3373 118.541 22.203 123.032C19.4667 125.425 16.064 126.536 12.374 126.784C9.02621 127.008 5.65578 126.997 2.29523 127C0.149276 127.002 0.00868367 126.802 0.00749552 124.858C0.00242907 116.577 -0.00250773 108.296 0.0014209 100.016C0.00233089 98.0934 0.0598028 98.0358 2.10904 98.0352C5.64603 98.034 9.19181 97.9207 12.7178 98.1071C17.2082 98.3445 21.0926 99.8895 23.9552 103.334ZM6.64784 110.427C6.64624 113.688 6.66634 116.949 6.62886 120.209C6.61861 121.101 6.90101 121.555 7.9612 121.501C9.39541 121.429 10.8331 121.547 12.2698 121.356C16.3766 120.809 18.7895 118.852 19.7605 115.18C19.9232 114.564 20.0271 113.929 20.0834 113.298C20.4859 108.781 18.5463 104.419 12.6577 103.336C11.1031 103.05 9.5261 103.224 7.96171 103.145C7.00014 103.097 6.63004 103.486 6.64225 104.343C6.67002 106.291 6.64936 108.24 6.64784 110.427Z" fill="black"/>
<path d="M142.827 126.712C139.3 125.978 137.235 123.84 136.055 120.926C134.341 116.697 134.578 112.57 137.79 109.027C141.204 105.26 146.056 104.854 150.376 107.676C150.575 107.807 150.715 108.038 151.036 108.016C151.425 107.691 151.134 107.286 151.133 106.923C151.131 104.44 151.127 101.957 151.083 99.4747C151.064 98.4405 151.464 97.9288 152.645 98.008C153.57 98.0699 154.506 98.0731 155.431 98.0147C156.613 97.9401 157.003 98.4451 156.977 99.4854C156.936 101.1 156.985 102.717 156.985 104.333C156.985 111.19 156.958 118.048 157 124.906C157.007 126.092 156.633 126.702 155.301 126.641C154.881 126.621 154.452 126.716 154.038 126.673C151.307 126.387 151.816 126.798 151.366 124.349C148.87 126.312 146.21 127.605 142.827 126.712ZM145.314 121.924C148.618 122.115 150.524 120.985 151.166 118.26C151.51 116.801 151.516 115.287 150.995 113.825C150.32 111.927 148.842 110.898 146.773 110.771C144.787 110.648 143.173 111.395 142.11 113.062C141.496 114.025 141.386 115.097 141.36 116.139C141.297 118.708 142.27 121.235 145.314 121.924Z" fill="black"/>
<path d="M74.3719 127C71.0488 126.99 71.0516 126.99 71.061 123.91C71.0702 120.886 71.0378 117.863 71.088 114.84C71.1374 111.867 68.6199 110.24 65.4495 111.379C64.073 111.873 63.3352 112.881 63.3358 114.328C63.3372 117.908 63.3365 121.488 63.3166 125.068C63.3073 126.736 63.1482 126.89 61.3804 126.97C60.4611 127.011 59.5381 126.979 58.6168 126.981C57.4877 126.984 56.9901 126.528 57.002 125.382C57.0473 121.007 57.0089 116.631 57.0054 112.255C57.0021 108.079 56.9941 103.902 57.0074 99.7252C57.0124 98.1713 57.1884 98.0223 58.8164 98.009C59.8216 98.0008 60.8296 98.0582 61.8315 98.0051C62.9138 97.9478 63.3648 98.3677 63.3325 99.3929C63.2486 102.055 63.2021 104.718 63.1449 107.381C63.1383 107.691 63.0303 108.015 63.2584 108.33C63.8152 108.447 64.0349 107.977 64.3521 107.709C66.845 105.597 69.721 105.4 72.6796 106.435C75.6913 107.488 76.8334 109.917 76.9214 112.758C77.0434 116.693 76.9881 120.634 76.9839 124.572C76.9813 126.952 76.9602 126.952 74.3719 127Z" fill="black"/>
<path d="M81.0506 110.126C81.0443 107.146 81.0339 104.278 81.0237 101.41C81.0226 101.091 81.0192 100.772 81.0227 100.453C81.048 98.1165 81.1343 98.0261 83.4206 98.0246C88.4027 98.0213 93.385 98.0497 98.3666 98.0002C99.539 97.9886 100.059 98.3865 99.9946 99.5759C99.9384 100.61 99.9235 101.646 99.9102 102.682C99.901 103.397 99.5317 103.645 98.8616 103.663C95.5433 103.753 92.2262 103.952 88.9065 103.705C87.2491 103.581 87.044 103.769 87.0348 105.438C87.0289 106.514 87.0846 107.594 87.0246 108.667C86.9732 109.586 87.2276 109.854 88.2153 109.885C91.3 109.984 94.3772 109.915 97.4584 109.824C98.8336 109.783 99.0412 110.019 99.0448 111.417C99.0567 115.989 99.0501 115.028 95.5651 115.108C93.2335 115.162 90.8996 115.114 88.5667 115.115C87.0508 115.115 87.0112 115.146 87.0233 116.636C87.0477 119.622 87.1607 122.605 87.0606 125.593C87.0275 126.58 86.6535 126.984 85.7435 126.992C84.6372 127.002 83.5308 127.002 82.4245 126.996C81.3925 126.99 80.99 126.492 81.0002 125.423C81.0486 120.361 81.0369 115.299 81.0506 110.126Z" fill="black"/>
<path d="M127.397 126.772C126.697 126.333 126.828 125.71 126.827 125.148C126.816 121.708 126.83 118.269 126.818 114.83C126.816 114.211 126.802 113.58 126.682 112.977C126.229 110.719 124.885 109.737 122.565 109.908C120.617 110.051 119.129 111.612 119.106 113.645C119.068 117.043 119.181 120.444 119.054 123.838C118.933 127.052 119.29 126.912 115.8 126.965C113.011 127.008 113.011 126.94 113.01 124.209C113.008 118.491 113.005 112.772 113 107.054C112.999 105.301 112.996 105.304 114.704 105.277C115.122 105.27 115.542 105.258 115.959 105.22C118.317 105.005 118.317 105.002 118.744 107.41C119.824 106.543 120.811 105.631 122.133 105.355C126.651 104.412 130.58 105.155 132.433 109.944C132.855 111.035 132.956 112.211 132.969 113.361C133.011 117.338 132.951 121.317 133 125.294C133.014 126.48 132.515 126.965 131.382 126.974C130.085 126.985 128.785 127.091 127.397 126.772Z" fill="black"/>
<path d="M160.266 121.011C158.946 118.314 158.699 115.586 159.335 112.776C160.379 108.159 164.11 105.536 168.318 105.068C172.982 104.549 176.876 107.035 178.803 111.415C179.493 112.983 179.73 114.64 179.972 116.301C180.13 117.388 179.622 117.905 178.485 117.876C174.573 117.778 170.661 117.695 166.748 117.623C164.889 117.589 164.783 117.763 165.563 119.368C166.935 122.188 169.897 123.264 172.805 121.996C173.722 121.595 174.611 121.139 175.354 120.466C175.803 120.059 176.214 120.034 176.677 120.413C176.901 120.595 177.145 120.755 177.381 120.923C179.497 122.43 179.508 122.853 177.467 124.415C172.279 128.385 165.194 127.713 161.413 122.873C160.985 122.325 160.672 121.689 160.266 121.011ZM165.806 111.156C165.67 111.408 165.515 111.65 165.403 111.912C164.773 113.382 164.935 113.645 166.519 113.654C168.593 113.666 170.666 113.667 172.74 113.647C174.047 113.635 174.159 113.381 173.631 112.174C172.303 109.141 167.648 108.7 165.806 111.156Z" fill="black"/>
<path d="M41.7001 117.696C38.7342 116.529 36.9806 114.603 37.0002 111.416C37.0127 109.379 37.9382 107.774 39.6434 106.718C43.7257 104.191 49.515 104.399 53.4225 107.692C54.2292 108.372 54.3847 108.965 53.462 109.634C53.2965 109.754 53.1564 109.908 52.9999 110.04C51.2307 111.541 51.2424 111.519 49.1512 110.447C47.6746 109.691 46.092 109.543 44.4511 109.81C43.7013 109.932 43.2377 110.334 43.0744 111.024C42.893 111.79 43.3998 112.251 43.9968 112.585C45.3651 113.351 46.9682 113.209 48.427 113.639C49.3354 113.907 50.283 114.068 51.163 114.403C53.5048 115.295 54.8425 117.005 54.9879 119.471C55.1448 122.133 53.766 124.062 51.5718 125.421C48.23 127.491 44.6575 127.27 41.0469 126.215C39.8933 125.878 38.7913 125.422 37.7668 124.79C37.0518 124.349 36.7444 123.853 37.3919 123.124C37.5537 122.941 37.673 122.723 37.8135 122.522C39.3628 120.309 39.3727 120.29 41.7344 121.445C43.2189 122.171 44.7649 122.479 46.4167 122.386C47.1549 122.345 47.7998 122.119 48.3422 121.651C49.1968 120.913 49.1025 119.925 48.1248 119.34C47.1855 118.778 46.1051 118.587 45.0504 118.451C43.9332 118.307 42.8728 117.989 41.7001 117.696Z" fill="black"/>
<path d="M183.039 118.283C183.047 114.542 183.045 110.925 183.068 107.308C183.079 105.505 183.27 105.296 184.965 105.331C185.924 105.351 186.989 104.988 187.819 105.588C188.694 106.22 188.019 107.498 188.53 108.44C189.113 108.18 189.265 107.521 189.621 107.077C190.755 105.663 192.154 104.94 193.907 105.004C194.55 105.028 194.969 105.302 194.982 106.022C195.007 107.31 195.003 108.599 194.989 109.887C194.983 110.495 194.708 110.763 194.095 110.711C190.577 110.407 188.93 113.043 188.742 116.441C188.581 119.341 188.708 122.259 188.691 125.169C188.682 126.683 188.5 126.899 187.091 126.975C186.161 127.025 185.228 126.986 184.296 126.979C183.397 126.971 182.978 126.543 183.001 125.516C183.054 123.148 183.031 120.778 183.039 118.283Z" fill="black"/>
<path d="M29.0156 113.868C29.0144 111.342 29.0391 108.942 29.0006 106.543C28.9822 105.39 29.3616 104.931 30.2755 105.008C30.9175 105.062 31.5647 105.013 32.2095 105.02C33.9691 105.041 33.9824 105.043 33.9854 107.169C33.9929 112.516 33.9874 117.862 33.9868 123.209C33.9867 123.967 33.9448 124.728 33.993 125.481C34.0597 126.525 33.6493 126.965 32.874 126.984C31.9587 127.007 31.0427 127.002 30.1271 126.99C29.3374 126.979 28.9949 126.511 29.0029 125.488C29.0332 121.657 29.0153 117.825 29.0156 113.868Z" fill="black"/>
<path d="M107.596 127C106.406 126.98 105.349 126.976 104.293 126.927C103.425 126.886 103.021 126.449 103.021 125.685C103.02 119.21 103.016 112.735 103 106.26C102.998 105.341 103.504 104.978 104.516 105.001C105.525 105.025 106.536 105 107.546 105C109.975 105.003 110.001 105.025 110 107.216C109.998 111.799 109.992 116.383 109.989 120.966C109.989 122.269 110.005 123.573 109.989 124.876C109.965 126.769 109.916 126.806 107.596 127Z" fill="black"/>
<path d="M30.7847 96.2129C32.7263 95.5807 34.465 96.4014 34.8886 98.0789C35.3558 99.9293 34.3187 101.566 32.4363 101.949C31.2187 102.197 29.9675 101.528 29.3181 100.284C28.7267 99.1503 28.9744 97.7094 29.9407 96.7982C30.1682 96.5838 30.4539 96.4311 30.7847 96.2129Z" fill="black"/>
<path d="M104.654 97.1033C107.154 96.7224 109.136 97.4147 109.851 98.8541C110.435 100.031 109.246 101.415 107.284 101.841C105.19 102.295 103.197 101.755 102.369 100.509C101.445 99.1203 102.274 97.8343 104.654 97.1033Z" fill="black"/>
</svg>
