<svg version="1.1" id="Layer_1" xmlns="http://www.w3.org/2000/svg" xmlns:xlink="http://www.w3.org/1999/xlink" x="0px" y="0px"
	 width="100%" viewBox="0 0 1024 928" enable-background="new 0 0 1024 928" xml:space="preserve">
<path fill="#000000" opacity="1.000000" stroke="none" 
	d="
M594.549133,579.908203 
	C590.980530,578.186218 588.444702,575.753418 585.987122,573.273865 
	C570.626892,557.775818 555.332825,542.212036 539.960388,526.726135 
	C535.450378,522.182861 531.620972,517.645874 530.842285,510.675171 
	C530.190369,504.838806 524.197937,502.290466 520.150330,498.786499 
	C518.465210,497.327698 516.523438,499.775421 515.027588,500.938721 
	C503.205780,510.132233 490.127136,517.000610 475.955902,521.675110 
	C411.059631,543.081787 340.340271,513.462708 309.842041,452.259857 
	C295.620392,423.720276 290.990723,393.733337 297.237305,362.468018 
	C303.833588,329.452423 321.263672,302.765686 347.456146,281.924561 
	C376.191437,259.060089 409.152313,250.129456 445.603180,253.567642 
	C481.954712,256.996460 511.962311,272.620422 536.101013,299.974365 
	C553.378357,319.552917 564.800293,342.006897 569.523132,367.612274 
	C576.173279,403.667023 567.379517,436.547913 547.736572,466.941803 
	C546.923462,468.199921 545.764038,469.294708 545.210693,470.647552 
	C544.082458,473.406097 539.140747,475.327209 541.571167,478.531158 
	C544.695557,482.649719 547.282898,488.261688 554.109131,487.960693 
	C558.746460,487.756195 562.454224,490.157410 565.571655,493.286926 
	C582.967041,510.749695 600.414673,528.163574 617.582703,545.848328 
	C624.902100,553.388062 625.329590,562.845032 619.642456,571.455322 
	C613.820679,580.269775 604.776306,583.424744 594.549133,579.908203 
M399.913605,371.414551 
	C413.772858,356.096008 428.049194,341.177429 442.789185,326.703461 
	C445.045319,324.488007 447.167847,322.096283 450.151672,320.801270 
	C454.026886,319.119324 457.783020,319.402466 460.814117,322.394348 
	C463.854736,325.395630 464.140320,329.252411 462.512787,333.049408 
	C461.749390,334.830414 460.411926,336.452484 459.051788,337.876343 
	C450.997253,346.308105 442.825195,354.627594 434.762024,363.051178 
	C429.233826,368.826447 423.741943,374.640564 418.381592,380.570892 
	C415.330750,383.946198 415.266632,388.213013 418.029663,390.907928 
	C421.502502,394.295044 424.516815,392.732849 427.618439,390.034637 
	C437.566589,381.380646 446.631989,371.852509 455.687073,362.297272 
	C461.296356,356.378143 466.907104,350.413025 473.002411,345.016632 
	C478.024780,340.570190 484.169495,341.003448 487.822266,345.119537 
	C491.515991,349.281769 491.119354,353.483093 486.134735,358.732819 
	C476.959442,368.396088 467.584839,377.870209 458.416229,387.539764 
	C452.464722,393.816467 446.655884,400.233459 440.936432,406.722717 
	C438.597168,409.376831 439.021973,412.166565 441.459778,414.755127 
	C443.906433,417.353119 446.714081,417.524109 449.619995,415.975525 
	C451.202850,415.131989 452.600372,413.848358 453.896515,412.575012 
	C460.076447,406.503876 466.220093,400.395142 472.324829,394.248322 
	C479.368347,387.156311 486.282959,379.934570 493.406403,372.924500 
	C496.355103,370.022675 499.508270,367.016235 504.313293,368.305634 
	C512.789246,370.580231 514.652649,378.810364 507.855621,385.852234 
	C490.046875,404.302460 472.150452,422.673126 454.011566,440.797852 
	C440.856720,453.942474 425.059143,458.603607 406.856293,453.577637 
	C402.853760,452.472504 399.833252,453.453247 396.979156,456.399811 
	C390.143494,463.456909 383.115112,470.327118 376.186188,477.294281 
	C372.407196,481.094208 372.508759,481.588196 377.269806,484.569519 
	C389.884460,492.468658 403.633301,497.094391 418.362793,498.999451 
	C434.595276,501.098877 450.607910,500.070282 466.185791,495.062683 
	C488.547607,487.874359 507.054413,475.052307 520.889832,455.908081 
	C544.297913,423.518127 548.954834,387.850525 534.615845,351.246796 
	C514.267761,299.303650 457.896027,268.886993 402.231049,285.226135 
	C368.182373,295.220337 344.203888,317.056885 331.117981,350.108276 
	C324.194794,367.594299 323.034882,385.952789 325.097931,404.663696 
	C327.497986,426.431122 336.288452,445.194336 350.154877,461.846680 
	C351.813477,463.838440 353.301666,463.985321 355.114227,462.146210 
	C363.646851,453.488678 372.196106,444.847443 380.753113,436.213989 
	C382.481598,434.470032 382.805115,432.724457 381.676849,430.381714 
	C374.363556,415.196533 377.139374,400.942352 386.104584,387.448212 
	C389.891205,381.748779 394.464569,376.653442 399.913605,371.414551 
z"/>
<path fill="#000000" opacity="1.000000" stroke="none" 
	d="
M207.234894,660.819458 
	C226.461182,686.851685 220.135239,724.448181 200.551712,743.235901 
	C190.114548,753.248962 177.135513,757.899048 163.060730,758.932922 
	C150.291245,759.870911 137.435379,759.825378 124.617218,759.838440 
	C116.431892,759.846802 115.895630,759.010071 115.891098,750.875183 
	C115.871773,716.229309 115.852943,681.583496 115.867928,646.937622 
	C115.871399,638.894714 116.090614,638.653870 123.907051,638.651184 
	C137.398224,638.646423 150.922913,638.172180 164.372223,638.952026 
	C181.499802,639.945251 196.316162,646.409485 207.234894,660.819458 
M141.219421,690.500000 
	C141.213333,704.142334 141.289978,717.785583 141.147034,731.426514 
	C141.107941,735.158386 142.185104,737.054932 146.228973,736.832397 
	C151.699509,736.531433 157.183167,737.025513 162.663254,736.225098 
	C178.327759,733.937073 187.531647,725.748291 191.235123,710.383057 
	C191.855927,707.807434 192.251999,705.150818 192.466660,702.508362 
	C194.001877,683.610596 186.603729,665.362244 164.142899,660.830933 
	C158.213181,659.634644 152.197983,660.359924 146.230942,660.031799 
	C142.563217,659.830139 141.151520,661.457947 141.198105,665.044128 
	C141.304016,673.194824 141.225204,681.347900 141.219421,690.500000 
z"/>
<path fill="#000000" opacity="1.000000" stroke="none" 
	d="
M686.305908,759.954468 
	C672.399475,756.850708 664.256958,747.816101 659.600342,735.501953 
	C652.841309,717.627930 653.779358,700.184265 666.443970,685.209778 
	C679.908508,669.289368 699.041260,667.574219 716.075806,679.502075 
	C716.863037,680.053284 717.412903,681.029297 718.679749,680.937317 
	C720.213135,679.564941 719.065552,677.854065 719.064209,676.317444 
	C719.055420,665.824585 719.038391,655.330444 718.863708,644.839417 
	C718.790894,640.468445 720.367188,638.306213 725.025391,638.640625 
	C728.671753,638.902466 732.364563,638.915955 736.011719,638.669250 
	C740.673035,638.353943 742.210938,640.488037 742.108215,644.884583 
	C741.948853,651.709412 742.141724,658.541809 742.141479,665.371033 
	C742.140503,694.354004 742.032410,723.337524 742.198914,752.319458 
	C742.227722,757.333740 740.753967,759.911499 735.498779,759.652161 
	C733.844238,759.570496 732.152466,759.971802 730.518555,759.788635 
	C719.747864,758.580933 721.757324,760.316467 719.982056,749.965027 
	C710.139954,758.264160 699.647278,763.726074 686.305908,759.954468 
M696.116821,739.719788 
	C709.143982,740.524536 716.659973,735.749817 719.193726,724.231262 
	C720.549438,718.068237 720.572266,711.668884 718.519592,705.488770 
	C715.854858,697.465820 710.027588,693.118225 701.870178,692.580139 
	C694.038818,692.063599 687.674011,695.219849 683.480591,702.266357 
	C681.059875,706.334045 680.623840,710.864746 680.523499,715.269287 
	C680.275940,726.126648 684.112854,736.806946 696.116821,739.719788 
z"/>
<path fill="#000000" opacity="1.000000" stroke="none" 
	d="
M415.946350,760.059509 
	C402.728119,760.016357 402.739594,760.016418 402.776825,747.115112 
	C402.813354,734.452515 402.684662,721.787659 402.884277,709.127808 
	C403.080688,696.672852 393.067047,689.857544 380.456299,694.628052 
	C374.981201,696.699280 372.046478,700.921143 372.048767,706.982605 
	C372.054443,721.976868 372.051788,736.971375 371.972412,751.965332 
	C371.935394,758.955200 371.302795,759.598633 364.270844,759.932922 
	C360.614166,760.106689 356.942932,759.969604 353.278259,759.980408 
	C348.787415,759.993652 346.807922,758.081055 346.855164,753.280396 
	C347.035431,734.955444 346.882721,716.627258 346.868927,698.300293 
	C346.855774,680.805908 346.823914,663.311340 346.876862,645.817139 
	C346.896545,639.308594 347.596588,638.684448 354.072479,638.628784 
	C358.070648,638.594421 362.080017,638.834900 366.065399,638.612488 
	C370.370270,638.372192 372.164185,640.131104 372.035706,644.425354 
	C371.702057,655.575867 371.517059,666.730774 371.289581,677.884338 
	C371.263092,679.183960 370.833679,680.538452 371.740906,681.858521 
	C373.955750,682.350952 374.829498,680.381409 376.091339,679.255798 
	C386.007172,670.410767 397.446808,669.587646 409.214905,673.921692 
	C421.194519,678.333679 425.737244,688.506592 426.087433,700.407776 
	C426.572418,716.889587 426.352661,733.393677 426.335785,749.888123 
	C426.325623,759.857483 426.241516,759.857422 415.946350,760.059509 
z"/>
<path fill="#000000" opacity="1.000000" stroke="none" 
	d="
M440.148682,689.324097 
	C440.122040,676.875916 440.078308,664.893921 440.035461,652.911865 
	C440.030670,651.579163 440.016357,650.246338 440.030945,648.913818 
	C440.137756,639.154724 440.501526,638.777405 450.133667,638.771118 
	C471.123383,638.757385 492.114227,638.875916 513.101929,638.669250 
	C518.041199,638.620667 520.233582,640.282654 519.960815,645.251587 
	C519.723694,649.570679 519.661194,653.901245 519.604919,658.227783 
	C519.566162,661.214294 518.010315,662.250916 515.187195,662.326782 
	C501.207275,662.702576 487.231934,663.532227 473.246124,662.499390 
	C466.263062,661.983643 465.399078,662.769897 465.360443,669.740051 
	C465.335510,674.237671 465.570282,678.746826 465.317444,683.229919 
	C465.100891,687.068909 466.172546,688.186951 470.333862,688.318909 
	C483.329773,688.730896 496.294342,688.445679 509.275665,688.061890 
	C515.069397,687.890564 515.943848,688.876831 515.959167,694.719116 
	C516.009338,713.818970 515.981262,709.801819 501.299011,710.137451 
	C491.475769,710.362000 481.642944,710.164673 471.814423,710.164978 
	C465.427643,710.165161 465.260895,710.296204 465.312134,716.523010 
	C465.414734,728.993530 465.890961,741.456360 465.469177,753.938049 
	C465.329803,758.061584 463.753998,759.749695 459.919983,759.783630 
	C455.259247,759.824829 450.597778,759.825073 445.936859,759.799561 
	C441.588959,759.775757 439.893250,757.694153 439.936310,753.227112 
	C440.140167,732.082764 440.090942,710.936035 440.148682,689.324097 
z"/>
<path fill="#000000" opacity="1.000000" stroke="none" 
	d="
M625.091553,759.086304 
	C622.307495,757.320496 622.831970,754.816162 622.825195,752.555969 
	C622.783997,738.731506 622.836731,724.906738 622.791992,711.082275 
	C622.783997,708.595825 622.728821,706.058777 622.248169,703.633728 
	C620.449341,694.558533 615.106140,690.611633 605.882446,691.298279 
	C598.137085,691.874878 592.217468,698.149719 592.127197,706.321106 
	C591.976318,719.977295 592.425293,733.649902 591.919678,747.289551 
	C591.440674,760.209351 592.861267,759.648071 578.982971,759.862061 
	C567.893555,760.033020 567.895508,759.760315 567.891235,748.783325 
	C567.882263,725.797791 567.869202,702.812317 567.850891,679.826782 
	C567.845276,672.782959 567.835144,672.792908 574.625061,672.683716 
	C576.289124,672.656982 577.958008,672.608948 579.614014,672.456116 
	C588.991516,671.590881 588.990417,671.578979 590.686646,681.259583 
	C594.981323,677.773132 598.907532,674.106140 604.164062,672.997498 
	C622.125122,669.209534 637.746460,672.194702 645.114136,691.442505 
	C646.793091,695.828979 647.195984,700.554749 647.244812,705.178589 
	C647.413574,721.166138 647.176697,737.158264 647.368774,753.145325 
	C647.426025,757.909851 645.440796,759.860291 640.937622,759.898560 
	C635.780518,759.942383 630.610352,760.368469 625.091553,759.086304 
z"/>
<path fill="#000000" opacity="1.000000" stroke="none" 
	d="
M757.999084,736.824341 
	C752.721375,725.866394 751.733154,714.783325 754.274963,703.362305 
	C758.450012,684.603088 773.374573,673.946533 790.207153,672.043457 
	C808.860229,669.934570 824.434204,680.037354 832.143433,697.834534 
	C834.903015,704.205261 835.851746,710.939758 836.818604,717.686462 
	C837.451599,722.104370 835.418091,724.203125 830.872375,724.087708 
	C815.225098,723.690247 799.576050,723.352722 783.926453,723.060486 
	C776.490662,722.921570 776.065247,723.627075 779.187561,730.149109 
	C784.673462,741.608276 796.520508,745.981201 808.153137,740.826050 
	C811.821594,739.200317 815.375977,737.343994 818.348877,734.609497 
	C820.144348,732.958008 821.789062,732.857727 823.641052,734.394043 
	C824.536743,735.136963 825.512878,735.783630 826.457397,736.467163 
	C834.921204,742.593262 834.962952,744.311829 826.799072,750.658936 
	C806.050415,766.790222 777.709290,764.057922 762.585938,744.391602 
	C760.873535,742.164856 759.624084,739.582092 757.999084,736.824341 
M780.157532,696.782471 
	C779.616089,697.803528 778.993958,698.790588 778.546570,699.851318 
	C776.025879,705.828125 776.675964,706.896973 783.010925,706.933105 
	C791.304565,706.980347 799.599365,706.984924 807.892578,706.904419 
	C813.119934,706.853638 813.570068,705.821167 811.456543,700.916138 
	C806.147034,688.593872 787.526184,686.800842 780.157532,696.782471 
z"/>
<path fill="#000000" opacity="1.000000" stroke="none" 
	d="
M284.764099,723.521851 
	C272.825836,718.735229 265.767151,710.830933 265.845886,697.751404 
	C265.896179,689.392212 269.621552,682.807007 276.485291,678.474670 
	C292.917328,668.102905 316.220062,668.958191 331.948517,682.470215 
	C335.195801,685.259766 335.821594,687.692139 332.107574,690.440613 
	C331.441315,690.933655 330.877319,691.562622 330.247528,692.107361 
	C323.126007,698.266602 323.173157,698.173279 314.755707,693.776245 
	C308.812439,690.671692 302.442169,690.066284 295.837341,691.162109 
	C292.819000,691.662842 290.953033,693.310913 290.295837,696.141907 
	C289.565552,699.287720 291.605682,701.179199 294.008362,702.550659 
	C299.516052,705.694336 305.969055,705.110535 311.840912,706.875366 
	C315.497284,707.974365 319.311554,708.634827 322.853607,710.010498 
	C332.279633,713.671265 337.664276,720.687927 338.249451,730.807495 
	C338.880981,741.729126 333.331360,749.643921 324.499115,755.221497 
	C311.047913,763.715942 296.668121,762.811829 282.134521,758.481995 
	C277.491119,757.098633 273.055634,755.226685 268.931580,752.632080 
	C266.053741,750.821655 264.816315,748.787842 267.422546,745.795227 
	C268.074158,745.046997 268.553986,744.150024 269.119720,743.326172 
	C275.355988,734.244446 275.395874,734.165405 284.902008,738.905457 
	C290.877441,741.885010 297.100372,743.149902 303.749023,742.770020 
	C306.720520,742.600220 309.316345,741.673950 311.499329,739.752869 
	C314.939484,736.725464 314.559814,732.670471 310.624542,730.269104 
	C306.843597,727.961914 302.494904,727.178589 298.249603,726.621277 
	C293.752686,726.030945 289.484100,724.722839 284.764099,723.521851 
z"/>
<path fill="#000000" opacity="1.000000" stroke="none" 
	d="
M845.835205,725.000000 
	C845.869751,710.009827 845.858154,695.519348 845.957336,681.029602 
	C846.006775,673.806580 846.823669,672.967407 854.094849,673.109680 
	C858.208313,673.190063 862.776306,671.736023 866.336914,674.137146 
	C870.091431,676.669067 867.197876,681.791138 869.386414,685.565125 
	C871.889648,684.525208 872.542725,681.884033 874.070129,680.103699 
	C878.931152,674.437622 884.935669,671.540833 892.454712,671.799072 
	C895.211426,671.893799 897.008850,672.992615 897.067078,675.876465 
	C897.171387,681.036438 897.153748,686.200317 897.096008,691.361511 
	C897.068726,693.797119 895.887878,694.873535 893.261963,694.661682 
	C878.170288,693.444214 871.104858,704.004028 870.296692,717.620239 
	C869.606995,729.239319 870.150024,740.929626 870.077209,752.587952 
	C870.039368,758.651306 869.259277,759.518982 863.213928,759.821594 
	C859.228210,760.021179 855.223755,759.867310 851.227905,759.836304 
	C847.370422,759.806396 845.572388,758.091370 845.670593,753.978088 
	C845.897034,744.489502 845.800354,734.993164 845.835205,725.000000 
z"/>
<path fill="#000000" opacity="1.000000" stroke="none" 
	d="
M230.839111,708.000000 
	C230.833298,698.004700 230.954376,688.506958 230.765686,679.015259 
	C230.674988,674.452209 232.537292,672.638733 237.022980,672.942871 
	C240.173615,673.156433 243.350510,672.961609 246.515274,672.991211 
	C255.151489,673.072021 255.216644,673.080750 255.231384,681.493042 
	C255.268417,702.648865 255.241440,723.804749 255.238297,744.960632 
	C255.237854,747.959106 255.032059,750.973022 255.268494,753.952271 
	C255.596283,758.082642 253.582016,759.823547 249.776611,759.899292 
	C245.284103,759.988708 240.788162,759.969421 236.294540,759.921143 
	C232.418671,759.879517 230.737320,758.027344 230.776947,753.977112 
	C230.925247,738.819275 230.837784,723.659241 230.839111,708.000000 
z"/>
<path fill="#000000" opacity="1.000000" stroke="none" 
	d="
M546.697021,759.977722 
	C542.581116,759.897827 538.920471,759.882751 535.269531,759.686829 
	C532.264404,759.525452 530.865540,757.796021 530.865356,754.773499 
	C530.863953,729.138855 530.850281,703.504089 530.794006,677.869568 
	C530.786011,674.230957 532.539490,672.792480 536.039673,672.885742 
	C539.532349,672.978943 543.029968,672.879639 546.525391,672.883423 
	C554.929626,672.892395 555.019043,672.979370 555.015869,681.655518 
	C555.009155,699.799744 554.989929,717.943970 554.979309,736.088196 
	C554.976257,741.248230 555.033386,746.408875 554.977295,751.568237 
	C554.895813,759.061584 554.725525,759.208130 546.697021,759.977722 
z"/>
<path fill="#000000" opacity="1.000000" stroke="none" 
	d="
M236.989426,633.691162 
	C246.126282,630.714111 254.308319,634.578857 256.301636,642.478760 
	C258.500275,651.192444 253.619843,658.899841 244.761459,660.703369 
	C239.031570,661.869995 233.143570,658.723450 230.087448,652.861572 
	C227.304733,647.524170 228.470108,640.738403 233.017639,636.447571 
	C234.087936,635.437683 235.432602,634.718628 236.989426,633.691162 
z"/>
<path fill="#000000" opacity="1.000000" stroke="none" 
	d="
M538.199280,635.759399 
	C546.987122,633.629761 553.953674,637.501282 556.467346,645.550110 
	C558.523254,652.133118 554.343750,659.870728 547.446228,662.251282 
	C540.084351,664.792114 533.078430,661.774170 530.166016,654.807434 
	C526.918274,647.038757 529.833740,639.847290 538.199280,635.759399 
z"/>
</svg>