<svg version="1.1" id="Layer_1" xmlns="http://www.w3.org/2000/svg" xmlns:xlink="http://www.w3.org/1999/xlink" x="0px" y="0px"
	 width="100%" viewBox="0 0 432 400" enable-background="new 0 0 432 400" xml:space="preserve">
<path fill="#000000" opacity="1.000000" stroke="none" 
	d="
M55.695694,264.250275 
	C40.345703,243.026276 30.781425,219.745087 27.809238,194.132141 
	C22.508003,148.448608 36.377758,109.073502 68.290337,75.993294 
	C91.343620,52.096516 119.452942,37.631920 152.215179,33.647339 
	C192.397369,28.760338 229.548279,37.896229 261.562866,63.302822 
	C285.980255,82.680290 303.324890,107.363640 312.535339,137.497849 
	C316.161255,149.360825 318.717865,161.472961 318.911713,173.741119 
	C319.441864,207.296432 309.237518,237.659439 289.233612,264.574310 
	C286.128723,268.751862 286.483643,271.151917 290.031891,274.518219 
	C293.709106,278.006866 296.772278,281.614960 302.717834,280.990326 
	C306.497284,280.593231 309.593567,283.305756 312.214355,285.925415 
	C330.472198,304.175598 348.800415,322.358093 366.845062,340.817505 
	C374.242188,348.384613 375.571472,357.319092 371.565216,365.586365 
	C366.855286,375.305725 359.429199,379.687897 348.723877,379.180176 
	C343.534149,378.934082 339.504181,376.284149 336.073883,372.822632 
	C317.430084,354.008911 298.893768,335.088623 280.329315,316.196320 
	C277.776123,313.598022 276.225128,310.419067 276.140747,306.816071 
	C275.957611,298.996216 268.812195,296.645630 264.633301,292.034485 
	C263.214294,290.468719 261.324646,292.704895 259.936035,293.767578 
	C244.957947,305.230225 228.550613,313.733765 210.230621,318.569031 
	C181.205032,326.229828 152.517975,325.253571 124.266205,315.256256 
	C96.343025,305.375275 73.486954,288.459351 55.695694,264.250275 
M255.422379,161.314514 
	C256.694122,166.498672 254.067459,170.208908 250.918839,173.874725 
	C242.764069,183.369003 233.413849,191.683289 224.729309,200.653442 
	C214.419830,211.301941 204.210159,222.077942 193.396851,232.200043 
	C179.509247,245.199951 163.119781,249.806091 144.520447,244.187668 
	C140.656281,243.020386 137.858109,243.851685 135.120483,246.663956 
	C127.916023,254.064911 120.556404,261.314819 113.261665,268.627960 
	C108.560463,273.341034 108.576233,273.887115 114.253944,277.252838 
	C138.732544,291.763580 164.979980,295.836029 192.968628,291.273132 
	C209.056610,288.650421 223.760178,282.921082 237.095963,273.830383 
	C277.122528,246.545166 293.603607,203.137177 285.789795,156.755386 
	C281.610687,131.948929 269.334351,111.167046 250.806076,94.264763 
	C217.231155,63.636337 178.139908,53.592255 135.171295,68.541107 
	C90.472176,84.092010 63.872948,116.438622 58.622341,164.198517 
	C55.838688,189.518829 59.760910,214.036804 73.288940,236.319778 
	C77.409393,243.106873 81.983971,249.534042 87.547318,255.391785 
	C98.118576,244.965057 108.311035,234.942245 118.460281,224.875854 
	C120.476738,222.875870 119.182884,220.960907 118.118973,218.999985 
	C114.847359,212.969971 114.065186,206.490707 114.372581,199.692093 
	C114.918404,187.620026 119.844284,177.450150 127.705338,168.674179 
	C144.040344,150.438004 160.700150,132.498093 178.165390,115.326042 
	C181.371933,112.173340 184.441895,108.856316 187.863052,105.954903 
	C190.914261,103.367241 194.597931,102.230026 198.587204,103.791496 
	C202.350433,105.264473 204.415787,108.213387 204.833618,112.148483 
	C205.298569,116.527420 202.927856,119.771797 200.004623,122.654068 
	C185.648193,136.809326 171.970322,151.611862 158.242569,166.367294 
	C154.400330,170.497177 153.858063,175.117249 156.867538,178.325867 
	C160.016556,181.683243 162.640564,181.106659 167.953674,176.460541 
	C182.784515,163.491592 195.563599,148.488129 209.571899,134.705963 
	C211.945755,132.370422 214.137894,129.816757 217.134262,128.232605 
	C222.009491,125.655083 227.778488,126.530952 230.809250,130.238983 
	C234.213943,134.404541 234.123840,138.306488 229.744125,143.218857 
	C224.316254,149.306854 218.497620,155.045441 212.878845,160.964447 
	C202.445389,171.955383 191.547379,182.507370 181.650284,194.005371 
	C178.851852,197.256470 178.398239,200.497894 181.717148,203.684830 
	C184.961914,206.800552 188.381088,206.457825 191.557068,203.741913 
	C195.224564,200.605682 198.800201,197.339706 202.196823,193.913086 
	C213.924088,182.082077 225.436707,170.036133 237.270569,158.313828 
	C244.006927,151.640976 250.682327,152.674133 255.422379,161.314514 
z"/>
</svg>